# xmcd CD database file
#
# Track frame offsets:
#	150
#	20197
#	96200
#	138153
#	173030
#	207366
#	226791
#	287127
#	317393
#
# Disc length: 4440 seconds
#
# Revision: 0
# Processed by: cddbd v1.5.2PL0 Copyright (c) Steve Scherf et al.
# Submitted via: CDex 1.51
#
DISCID=75115609
DTITLE=Michael Jones - Echos of Childhood
DYEAR=2002
DGENRE=New Age
TTITLE0=Song of the Wood Thrush
TTITLE1=Call to the Dance
TTITLE2=Dream of the World
TTITLE3=Summer's End
TTITLE4=In Dark Wood Lost
TTITLE5=Echos of Childhood
TTITLE6=New Born Day
TTITLE7=Dream of the World
TTITLE8=Copy Protection
EXTD=YEAR: 2002
EXTT0=
EXTT1=
EXTT2=
EXTT3=
EXTT4=
EXTT5=
EXTT6=
EXTT7=
EXTT8=
PLAYORDER=
